#!OML:ASF X:\für Bonn\!DataBase\2005_08_10_Bjorn_Final\c3d\bjorn.ASF
:FULLY-SPECIFIED
:DEGREES
94
root 5.07718 19.9851 -12.2772 14.0264 -7.16633 0.479355
lowerback 9.84777 0.421118 -3.02136
upperback 10.1168 0.399436 -1.5719
thorax 5.07595 0.0577498 0.0262288
lowerneck -3.34215 -0.51344 1.22233
upperneck -5.06584 -0.689704 1.01452
head -0.995229 -0.379636 0.108578
rclavicle 1.31198e-014 -2.0276e-014
rhumerus -20.3864 -5.42861 -83.5729
rradius 72.1404
rwrist -177.299
rhand -2.76708e-013 4.35736e-013
rfingers 7.12502
rthumb 25.5904 -28.3008
lclavicle 1.31198e-014 -2.0276e-014
lhumerus -11.8993 -14.9711 89.4308
lradius 59.9985
lwrist -12.4233
lhand 4.67542e-013 4.29375e-013
lfingers 7.12502
lthumb 25.5904 28.3008
rfemur -44.3624 -8.99356 19.2166
rtibia 45.3935
rfoot 4.19142 10.2258
rtoes -12.1562
lfemur -43.3629 5.98475 -18.4811
ltibia 42.2196
lfoot 3.75939 5.30985
ltoes -29.5729
95
root 5.08606 19.6671 -12.1378 14.1142 -6.96466 0.596034
lowerback 10.1096 0.388099 -3.08763
upperback 10.4149 0.346537 -1.4944
thorax 5.25738 0.019961 0.144411
lowerneck -3.83704 -0.500462 1.36327
upperneck -6.00999 -0.679844 0.916903
head -1.20812 -0.383782 0.0565733
rclavicle 1.23246e-014 -2.78299e-015
rhumerus -20.6079 -6.36656 -83.4943
rradius 69.9559
rwrist -176.352
rhand -2.3218e-013 7.21986e-013
rfingers 7.12502
rthumb 25.5904 -28.3008
lclavicle 1.23246e-014 -2.78299e-015
lhumerus -12.3942 -13.8724 89.8403
lradius 58.4233
lwrist -13.7416
lhand 7.21986e-013 3.14875e-013
lfingers 7.12502
lthumb 25.5904 28.3008
rfemur -45.2398 -8.86451 18.9719
rtibia 47.3173
rfoot 1.99009 10.3856
rtoes -12.2777
lfemur -44.4285 5.53342 -18.4398
ltibia 44.232
lfoot 2.46106 4.69327
ltoes -27.8389
96
root 5.09508 19.3419 -11.9991 14.1152 -6.73301 0.694207
lowerback 10.4601 0.353393 -3.10745
upperback 10.713 0.289706 -1.40811
thorax 5.39148 -0.0169479 0.246163
lowerneck -4.33457 -0.496762 1.51617
upperneck -6.96922 -0.686874 0.784866
head -1.42815 -0.39706 -0.00837523
rclavicle 4.77083e-015 -6.36111e-015
rhumerus -20.8842 -7.50746 -83.3928
rradius 67.7311
rwrist -175.185
rhand 3.75305e-013 -1.145e-013
rfingers 7.12502
rthumb 25.5904 -28.3008
lclavicle 4.77083e-015 -6.36111e-015
lhumerus -12.8862 -12.9078 90.1489
lradius 56.9764
lwrist -14.5908
lhand 1.59028e-014 -2.70347e-013
lfingers 7.12502
lthumb 25.5904 28.3008
rfemur -46.0603 -8.60411 18.6622
rtibia 49.5497
rfoot -0.754849 10.6989
rtoes -11.4191
lfemur -45.4992 5.08091 -18.3795
ltibia 46.6094
lfoot 0.538135 3.96625
ltoes -27.1623
97
root 5.10355 19.0156 -11.8614 13.9591 -6.48693 0.804383
lowerback 10.9694 0.330521 -3.09591
upperback 11.0083 0.24357 -1.33197
thorax 5.43692 -0.0451619 0.319372
lowerneck -4.61207 -0.497529 1.67248
upperneck -8.08505 -0.696841 0.652676
head -1.73882 -0.414261 -0.0737237
rclavicle -2.38542e-015 -9.14409e-015
rhumerus -21.2482 -8.81503 -83.2661
rradius 65.5037
rwrist -173.975
rhand -9.7325e-013 1.45033e-012
rfingers 7.12502
rthumb 25.5904 -28.3008
lclavicle -2.38542e-015 -9.14409e-015
lhumerus -13.4114 -12.0779 90.3875
lradius 55.6607
lwrist -15.012
lhand 1.36128e-012 1.04958e-012
lfingers 7.12502
lthumb 25.5904 28.3008
rfemur -46.7694 -8.34126 18.3046
rtibia 52.0604
rfoot -3.92057 11.1881
rtoes -9.99212
lfemur -46.4961 4.64811 -18.3495
ltibia 49.3319
lfoot -1.87139 3.51067
ltoes -27.1845
98
root 5.11276 18.6877 -11.7235 13.6445 -6.2439 0.9507
lowerback 11.6799 0.30642 -3.11231
upperback 11.3058 0.185447 -1.25754
thorax 5.37788 -0.0801196 0.407581
lowerneck -4.84383 -0.495814 1.77265
upperneck -9.29961 -0.700896 0.549641
head -2.09457 -0.428765 -0.121117
rclavicle 1.19271e-015 -6.36111e-015
rhumerus -21.6106 -10.2381 -83.0859
rradius 63.0878
rwrist -172.705
rhand -1.19271e-012 1.10524e-012
rfingers 7.12502
rthumb 25.5904 -28.3008
lclavicle 1.19271e-015 -6.36111e-015
lhumerus -13.952 -11.253 90.6056
lradius 54.4213
lwrist -15.1308
lhand 1.09411e-012 1.15136e-012
lfingers 7.12502
lthumb 25.5904 28.3008
rfemur -47.3683 -8.10054 17.8771
rtibia 54.8178
rfoot -7.40958 11.7651
rtoes -8.40056
lfemur -47.3834 4.23402 -18.3779
ltibia 52.3741
lfoot -4.647 3.37459
ltoes -27.096
99
root 5.1222 18.3601 -11.5848 13.1289 -6.00828 1.06646
lowerback 12.6297 0.29799 -3.04962
upperback 11.6261 0.144595 -1.19881
thorax 5.21683 -0.099607 0.434593
lowerneck -4.97016 -0.507906 1.86233
upperneck -10.6607 -0.718892 0.488653
head -2.52472 -0.452614 -0.153467
rclavicle 6.55989e-015 3.57812e-015
rhumerus -21.9026 -11.9066 -82.9099
rradius 60.5129
rwrist -171.268
rhand 8.68291e-013 -1.9306e-012
rfingers 7.12502
rthumb 25.5904 -28.3008
lclavicle 6.55989e-015 3.57812e-015
lhumerus -14.4931 -10.5854 90.7306
lradius 53.2966
lwrist -15.019
lhand -1.79383e-012 -1.18317e-012
lfingers 7.12502
lthumb 25.5904 28.3008
rfemur -47.7867 -7.84357 17.4454
rtibia 57.7717
rfoot -10.9958 12.3598
rtoes -6.33182
lfemur -48.1064 3.91316 -18.4141
ltibia 55.6722
lfoot -7.62958 3.43932
ltoes -26.9564
100
root 5.13256 18.0325 -11.4458 12.5872 -5.80641 1.17288
lowerback 13.5918 0.301663 -2.96515
upperback 11.9882 0.123448 -1.14782
thorax 5.10001 -0.108374 0.440105
lowerneck -5.23198 -0.517735 1.94234
upperneck -12.0399 -0.73552 0.461067
head -2.94692 -0.47691 -0.173981
rclavicle 3.97569e-016 -5.96354e-016
rhumerus -22.0225 -13.7554 -82.7352
rradius 57.8245
rwrist -169.834
rhand -5.08889e-013 1.87653e-012
rfingers 7.12502
rthumb 25.5904 -28.3008
lclavicle 3.97569e-016 -5.96354e-016
lhumerus -14.8048 -9.92677 90.7509
lradius 52.0674
lwrist -14.7994
lhand 1.72068e-012 9.16e-013
lfingers 7.12502
lthumb 25.5904 28.3008
rfemur -48.2184 -7.58872 17.0132
rtibia 60.8785
rfoot -14.5512 12.9528
rtoes -4.17866
lfemur -48.8722 3.71015 -18.5348
ltibia 59.1547
lfoot -10.6345 3.71706
ltoes -27.5478
101
root 5.14305 17.7056 -11.308 12.1483 -5.57721 1.28642
lowerback 14.4735 0.279471 -2.86357
upperback 12.317 0.0749791 -1.10078
thorax 4.99529 -0.129016 0.43526
lowerneck -5.73737 -0.508671 2.04476
upperneck -13.175 -0.740333 0.387996
head -3.25039 -0.493039 -0.214239
rclavicle 4.77083e-015 -5.76476e-015
rhumerus -22.0355 -15.8769 -82.5279
rradius 54.9827
rwrist -168.317
rhand -3.94389e-013 1.09729e-013
rfingers 7.12502
rthumb 25.5904 -28.3008
lclavicle 4.77083e-015 -5.76476e-015
lhumerus -15.033 -9.18172 90.701
lradius 50.7861
lwrist -14.639
lhand 2.06736e-013 2.60805e-013
lfingers 7.12502
lthumb 25.5904 28.3008
rfemur -48.8162 -7.41535 16.6272
rtibia 64.0921
rfoot -18.0219 13.3924
rtoes -2.68707
lfemur -49.8241 3.60503 -18.7789
ltibia 62.7407
lfoot -13.4513 4.36053
ltoes -29.7717
102
root 5.15335 17.3881 -11.1702 11.8835 -5.38759 1.39989
lowerback 15.194 0.269515 -2.73162
upperback 12.5658 0.0526988 -1.07886
thorax 4.89029 -0.132406 0.385468
lowerneck -6.27279 -0.490397 2.22942
upperneck -14.2394 -0.74634 0.236972
head -3.53105 -0.511166 -0.294731
rclavicle 0 5.56597e-015
rhumerus -21.9851 -18.3879 -82.2486
rradius 52.0218
rwrist -166.484
rhand 1.31675e-012 -1.31039e-012
rfingers 7.12502
rthumb 25.5904 -28.3008
lclavicle 0 5.56597e-015
lhumerus -15.3099 -8.46652 90.5995
lradius 49.4408
lwrist -14.6697
lhand -1.60777e-012 -1.50758e-012
lfingers 7.12502
lthumb 25.5904 28.3008
rfemur -49.6432 -7.18851 16.2697
rtibia 67.3604
rfoot -21.4041 13.4647
rtoes -2.38235
lfemur -51.0229 3.52939 -19.0522
ltibia 66.3493
lfoot -16.06 5.20424
ltoes -31.5476
103
root 5.16447 17.0859 -11.0346 11.8046 -5.20231 1.49984
lowerback 15.8065 0.233108 -2.60666
upperback 12.7191 -0.000915507 -1.03601
thorax 4.73952 -0.151584 0.366119
lowerneck -6.90981 -0.433331 2.34793
upperneck -15.1715 -0.702809 0.097469
head -3.75046 -0.500753 -0.361895
rclavicle -6.16232e-015 5.56597e-015
rhumerus -21.949 -21.2477 -81.8063
rradius 49.0274
rwrist -164.717
rhand -1.52667e-013 -9.91737e-013
rfingers 7.12502
rthumb 25.5904 -28.3008
lclavicle -6.16232e-015 5.56597e-015
lhumerus -15.6654 -7.61788 90.4879
lradius 48.0373
lwrist -14.9455
lhand -7.36298e-013 -2.8943e-013
lfingers 7.12502
lthumb 25.5904 28.3008
rfemur -50.705 -6.92453 15.9556
rtibia 70.6318
rfoot -24.5118 13.1874
rtoes -2.91343
lfemur -52.4238 3.36306 -19.2767
ltibia 69.8934
lfoot -18.5441 5.90517
ltoes -31.9708
104
root 5.17539 16.8002 -10.901 11.8699 -5.05486 1.60296
lowerback 16.323 0.207608 -2.47581
upperback 12.7841 -0.0359315 -1.0074
thorax 4.54184 -0.159295 0.327387
lowerneck -7.47314 -0.373555 2.46459
upperneck -16.1127 -0.657793 -0.0593163
head -3.9914 -0.489307 -0.435188
rclavicle 1.78906e-015 -5.56597e-015
rhumerus -22.0578 -24.5502 -81.1648
rradius 46.0017
rwrist -163.318
rhand 4.73903e-013 1.63401e-013
rfingers 7.12502
rthumb 25.5904 -28.3008
lclavicle 1.78906e-015 -5.56597e-015
lhumerus -16.0782 -6.75893 90.3444
lradius 46.5585
lwrist -15.2935
lhand -2.06736e-014 -1.54257e-013
lfingers 7.12502
lthumb 25.5904 28.3008
rfemur -51.9425 -6.63793 15.6711
rtibia 73.8384
rfoot -27.2834 12.5862
rtoes -4.49634
lfemur -53.8903 3.13239 -19.4621
ltibia 73.2865
lfoot -21.0338 6.12472
ltoes -30.4882
105
root 5.1857 16.5342 -10.7701 12.023 -4.86977 1.66864
lowerback 16.7573 0.155794 -2.30175
upperback 12.8293 -0.0956564 -0.977985
thorax 4.36624 -0.176543 0.268745
lowerneck -8.11346 -0.305744 2.60104
upperneck -16.9862 -0.607442 -0.21072
head -4.19845 -0.476455 -0.511106
rclavicle 1.78906e-015 7.7526e-015
rhumerus -22.3086 -28.2626 -80.3666
rradius 42.9434
rwrist -162.054
rhand 4.26194e-013 3.03743e-013
rfingers 7.12502
rthumb 25.5904 -28.3008
lclavicle 1.78906e-015 7.7526e-015
lhumerus -16.493 -5.9586 90.1698
lradius 45.0429
lwrist -15.0642
lhand 5.80451e-014 -1.78111e-013
lfingers 7.12502
lthumb 25.5904 28.3008
rfemur -53.2234 -6.38229 15.4658
rtibia 76.9143
rfoot -29.6314 11.697
rtoes -7.0541
lfemur -55.3341 2.94725 -19.6315
ltibia 76.4663
lfoot -23.1888 6.12968
ltoes -28.8219
106
root 5.1964 16.2869 -10.6412 12.2378 -4.71026 1.73104
lowerback 17.1661 0.0971364 -2.13238
upperback 12.8086 -0.163331 -0.949018
thorax 4.13155 -0.197455 0.21426
lowerneck -8.7334 -0.245115 2.66342
upperneck -17.746 -0.558132 -0.303445
head -4.37017 -0.461051 -0.554932
rclavicle -1.68967e-015 -5.56597e-015
rhumerus -22.8478 -31.82 -79.4021
rradius 40.2851
rwrist -160.932
rhand -5.43875e-013 -5.7091e-013
rfingers 7.12502
rthumb 25.5904 -28.3008
lclavicle -1.68967e-015 -5.56597e-015
lhumerus -16.9629 -5.0901 89.9702
lradius 43.5368
lwrist -14.8976
lhand -2.94996e-013 -6.20208e-014
lfingers 7.12502
lthumb 25.5904 28.3008
rfemur -54.4746 -6.13537 15.2557
rtibia 79.8201
rfoot -31.5778 10.7596
rtoes -9.98093
lfemur -56.6981 2.80979 -19.8141
ltibia 79.4103
lfoot -24.8782 5.91657
ltoes -27.109
